<?xml version="1.0" standalone="no"?>
<!DOCTYPE svg PUBLIC "-//W3C//DTD SVG 20010904//EN"
 "http://www.w3.org/TR/2001/REC-SVG-20010904/DTD/svg10.dtd">
<svg version="1.0" xmlns="http://www.w3.org/2000/svg"
 width="500.000000pt" height="500.000000pt" viewBox="0 0 500.000000 500.000000"
 preserveAspectRatio="xMidYMid meet">
<metadata>
Created by potrace 1.16, written by Peter Selinger 2001-2019
</metadata>
<g transform="translate(0.000000,500.000000) scale(0.100000,-0.100000)"
fill="#D22B2B" stroke="none">
<path d="M4200 4473 c-70 -137 -100 -175 -199 -253 -44 -35 -81 -65 -81 -67 0
-5 77 50 123 88 20 17 37 28 37 25 0 -3 -19 -45 -43 -93 -51 -103 -105 -190
-137 -218 -12 -11 -31 -37 -41 -57 -10 -20 -35 -50 -54 -65 -19 -15 -35 -32
-35 -38 -1 -12 -53 -71 -68 -76 -5 -2 -28 -28 -51 -56 -45 -58 -60 -65 -62
-30 -1 13 -4 8 -10 -16 -6 -26 -29 -59 -71 -104 -35 -36 -84 -88 -109 -114
-25 -27 -51 -49 -57 -49 -6 0 -15 12 -20 28 -9 24 -11 20 -11 -30 -1 -50 -6
-62 -42 -110 l-41 -53 54 55 c29 31 108 114 176 185 67 71 122 124 122 119 0
-6 -14 -23 -31 -40 -44 -40 -286 -311 -317 -354 -14 -19 -51 -64 -82 -100
-116 -134 -351 -450 -344 -462 9 -13 -110 -167 -128 -167 -10 -1 -18 3 -18 8
0 7 -13 14 -50 25 -3 1 -11 5 -18 10 -8 5 -18 4 -24 -2 -14 -14 49 -73 69 -65
13 5 13 2 4 -15 -10 -19 -9 -21 6 -15 12 5 7 -6 -13 -33 -133 -171 -309 -434
-388 -574 -26 -47 -56 -96 -67 -110 -11 -14 -2 10 21 53 24 44 37 77 30 77 -8
0 -9 4 -3 13 5 6 9 27 7 45 -2 31 22 62 59 75 7 2 9 7 6 11 -3 4 -39 -9 -78
-28 -40 -19 -113 -47 -162 -63 -49 -15 -89 -33 -89 -40 0 -7 -21 -14 -47 -18
-53 -6 -123 -25 -138 -36 -14 -10 -122 -31 -166 -33 -20 0 -46 -9 -56 -19 -11
-9 -27 -17 -36 -17 -9 0 -17 -4 -17 -10 0 -13 4 -13 64 7 28 9 58 18 66 21 17
5 20 6 108 17 59 7 64 6 60 -11 -1 -11 -18 -26 -35 -35 -18 -9 -39 -21 -46
-27 -8 -7 -30 -15 -51 -19 -20 -5 -38 -13 -39 -18 -6 -28 192 -10 287 26 67
25 70 16 6 -18 -29 -15 -61 -36 -71 -45 -51 -48 -88 -55 -328 -58 -23 0 -24
-1 -6 -13 13 -10 15 -16 6 -21 -16 -10 52 -73 104 -97 71 -32 167 -43 253 -29
42 7 82 15 90 18 11 4 13 0 8 -16 -5 -16 0 -29 18 -47 14 -14 26 -29 26 -34 0
-15 46 -49 85 -62 22 -7 76 -13 120 -12 65 1 88 6 120 24 22 13 42 26 45 29 3
3 14 10 25 16 11 6 20 20 20 31 0 25 21 50 58 70 26 13 43 13 126 3 l96 -13
78 37 c71 33 97 56 64 56 -14 0 -57 41 -57 53 0 4 15 7 33 7 17 0 39 5 47 10
12 8 12 10 1 10 -8 0 -3 8 12 20 14 11 30 20 36 20 6 0 11 9 11 21 0 15 5 19
18 15 9 -3 31 -7 49 -8 17 -1 31 -7 30 -12 -1 -6 8 -12 21 -14 25 -4 26 -6 11
-33 -10 -20 -10 -20 14 -4 21 14 26 14 37 1 10 -14 17 -13 51 5 34 17 38 22
29 39 -12 23 -22 24 -67 8 -25 -9 -36 -9 -41 -1 -4 6 -15 12 -24 14 -12 3 -15
8 -9 18 6 10 33 15 91 16 75 2 81 1 77 -16 -8 -30 44 -25 73 6 13 14 29 24 34
22 17 -6 66 22 66 38 0 9 8 12 21 10 24 -5 72 23 63 36 -3 5 6 13 20 19 33 12
33 22 -1 38 -33 15 -49 2 -34 -26 6 -10 8 -22 5 -25 -10 -10 -34 5 -34 20 0
11 -5 13 -17 8 -45 -18 -58 -17 -29 3 l30 21 -26 11 c-22 10 -29 9 -45 -6 -47
-45 -58 -49 -113 -46 -83 4 -83 4 -110 -3 -21 -5 -22 -5 -7 5 27 17 21 33 -10
25 -22 -5 -24 -4 -15 7 9 11 1 14 -43 15 -58 2 -59 -3 -6 -39 l23 -16 -36 -10
c-37 -11 -76 -6 -76 9 0 10 -41 12 -65 3 -14 -6 -14 -8 1 -25 16 -18 16 -19
-7 -20 -78 -3 -106 -6 -126 -13 -24 -8 -33 9 -10 17 21 7 0 19 -22 12 -17 -5
-19 -10 -11 -25 7 -14 5 -19 -10 -23 -22 -6 -28 9 -7 16 6 2 -7 7 -30 11 -24
4 -43 11 -43 14 0 4 -21 8 -48 8 -26 1 -37 0 -24 -3 12 -2 22 -8 22 -13 0 -13
-30 -19 -85 -16 -27 2 -59 4 -71 5 -12 0 -42 17 -67 36 -25 19 -54 35 -63 35
-14 0 -12 6 11 30 15 16 33 28 38 27 6 -1 11 6 12 16 0 10 17 32 37 50 52 45
198 217 198 233 0 7 9 18 20 24 11 6 20 15 20 21 0 19 81 119 96 119 9 0 40
-7 70 -16 81 -23 100 -12 34 19 l-55 26 50 0 c28 0 83 -4 123 -9 62 -8 77 -7
98 7 14 9 21 19 17 23 -4 4 -51 16 -103 26 l-95 18 55 17 c30 10 86 18 123 18
37 1 84 8 104 16 49 21 105 64 97 76 -3 5 -8 8 -12 6 -4 -2 -56 1 -117 8
l-110 11 90 42 c50 24 140 58 201 76 129 38 173 67 277 184 103 115 115 151
36 108 -45 -25 -122 -49 -194 -61 -29 -5 7 17 130 79 187 94 193 98 220 141
l19 30 -30 -26 c-52 -45 -64 -52 -104 -59 -31 -6 -40 -4 -40 6 0 14 25 32 133
95 37 22 57 40 57 52 0 10 18 39 39 64 43 48 151 202 170 243 12 24 12 24 -9
-2 -27 -35 -129 -104 -198 -135 -107 -47 -69 0 63 79 38 23 91 61 116 85 32
30 49 40 52 31 3 -8 6 -6 6 5 1 18 26 68 57 117 9 14 -6 2 -32 -27 -50 -53
-107 -93 -134 -93 -8 0 8 15 36 34 53 36 144 130 144 149 0 6 -18 -6 -40 -28
-22 -21 -43 -36 -46 -32 -4 4 -2 7 5 7 7 0 10 4 7 9 -3 4 21 35 53 69 33 33
62 69 66 81 3 12 10 19 14 17 4 -3 8 0 8 7 0 7 3 30 6 52 6 36 3 33 -27 -30
-22 -46 -50 -86 -84 -117 -48 -45 -83 -64 -66 -35 23 37 56 82 92 124 21 27
42 59 46 73 7 24 6 23 -21 -7 -44 -50 -223 -178 -223 -159 0 2 33 29 74 61 69
53 92 78 87 98 -1 5 19 31 44 59 27 30 51 69 59 97 10 35 18 46 32 44 18 -1
18 -1 -1 13 -19 14 -19 15 3 97 65 236 84 347 60 347 -7 0 -38 -48 -68 -107z"/>
<path d="M3412 3789 c-23 -23 -42 -44 -42 -48 0 -3 -4 -12 -9 -19 -7 -11 -12
-11 -28 -1 -17 10 -25 9 -51 -10 -17 -12 -34 -30 -37 -41 -3 -10 -28 -36 -54
-57 -26 -21 -46 -44 -43 -51 2 -7 9 -9 15 -5 7 3 5 -2 -5 -13 -11 -13 -19 -47
-23 -104 -4 -47 -5 -83 -2 -80 2 3 14 43 26 90 12 47 33 101 47 121 13 19 24
41 24 49 0 19 49 80 64 80 19 0 26 -56 21 -173 -3 -92 -3 -95 4 -27 12 124 47
224 99 281 54 60 51 63 -6 8z"/>
<path d="M2810 3010 c-5 -34 2 -79 22 -141 24 -77 20 -105 -22 -152 l-30 -32
-26 30 c-25 29 -26 29 -18 5 16 -53 9 -99 -16 -118 -14 -9 -27 -17 -30 -18
-46 -8 -53 -52 -13 -83 25 -20 27 -20 45 -4 30 27 60 81 53 95 -4 7 1 4 11 -7
11 -13 15 -15 11 -5 -8 24 22 76 104 184 111 147 165 223 144 206 -10 -8 -21
-13 -24 -11 -3 2 -25 -29 -49 -68 -24 -39 -52 -76 -63 -82 -18 -9 -22 -4 -45
47 -14 32 -31 82 -39 113 -7 31 -14 49 -15 41z"/>
<path d="M4194 1917 c-82 -41 -183 -88 -224 -106 -41 -18 -142 -65 -225 -103
-82 -39 -222 -103 -310 -143 -88 -40 -194 -88 -235 -107 -41 -19 -106 -49
-145 -66 -38 -17 -158 -70 -265 -118 -107 -48 -235 -104 -285 -125 -49 -20
-150 -64 -224 -97 l-135 -60 -125 62 c-69 35 -142 69 -161 77 -32 12 -220 105
-575 282 -71 36 -143 72 -160 81 -16 8 -111 56 -210 105 -99 49 -229 114 -290
145 -60 31 -116 56 -122 56 -32 0 -30 -160 2 -225 19 -39 32 -46 355 -207 184
-91 418 -206 520 -253 102 -48 300 -143 440 -211 140 -69 271 -127 291 -130
28 -5 41 -2 56 13 11 11 55 38 99 60 96 50 888 427 1034 493 58 26 177 83 265
125 176 85 519 244 632 294 168 73 183 88 183 179 0 44 -3 52 -18 52 -10 0
-86 -33 -168 -73z m-3544 -223 c79 -41 169 -87 200 -101 30 -14 168 -80 305
-148 138 -68 300 -147 360 -175 61 -29 160 -77 222 -106 61 -29 114 -58 118
-64 3 -5 13 -10 22 -10 9 0 71 -28 139 -62 l124 -61 0 -69 c0 -37 -2 -68 -4
-68 -5 0 -215 100 -446 212 -102 50 -201 96 -220 103 -19 7 -248 119 -507 249
l-473 236 0 63 c0 52 5 77 15 77 0 0 66 -34 145 -76z"/>
</g>
</svg>
